<svg width="512" height="512" viewBox="0 0 512 512" fill="none" xmlns="http://www.w3.org/2000/svg">
  <rect width="512" height="512" rx="112" fill="#0F172A"/>
  <path d="M132 338V169C132 141.386 154.386 119 182 119H330C357.614 119 380 141.386 380 169V286C380 313.614 357.614 336 330 336H246L176.722 389.162C158.445 403.192 132 390.165 132 367.132V338Z" fill="url(#paint0_linear)"/>
  <path d="M300.478 171.363C282.067 161.69 260.647 156.853 236.22 156.853C212.147 156.853 193.47 161.867 180.188 171.895C166.907 181.569 160.266 194.762 160.266 211.474C160.266 225.641 165.634 237.153 176.371 246.01C187.461 254.867 204.526 261.33 227.568 265.398L263.174 271.772C276.632 274.249 286.218 277.346 291.941 281.061C297.664 284.777 300.525 289.906 300.525 296.448C300.525 304.067 296.868 310.078 289.552 314.501C282.59 318.924 272.739 321.136 260 321.136C243.289 321.136 228.768 318.04 216.437 311.847C204.461 305.654 194.61 297.239 186.884 286.602L153.044 318.04C164.312 334.751 179.629 347.767 198.998 357.087C218.366 366.407 240.877 371.067 266.53 371.067C291.668 371.067 311.567 365.965 326.227 355.76C340.887 345.556 348.217 331.566 348.217 313.793C348.217 297.081 342.14 284.154 329.986 275.012C317.832 265.87 299.613 259.23 275.327 255.09L240.783 249.248C229.516 247.302 221.436 244.471 216.544 240.755C211.652 237.04 209.206 232.265 209.206 226.433C209.206 219.359 212.597 213.724 219.38 209.528C226.164 205.333 235.307 203.235 246.81 203.235C260.975 203.235 273.571 205.891 284.596 211.203C295.622 216.515 304.41 223.765 310.961 232.953L344.27 201.515C333.711 188.056 319.114 177.005 300.478 171.363Z" fill="white"/>
  <circle cx="348" cy="350" r="42" fill="#F8FAFC"/>
  <circle cx="348" cy="350" r="16" fill="#0F766E"/>
  <defs>
    <linearGradient id="paint0_linear" x1="132" y1="119" x2="400.645" y2="360.386" gradientUnits="userSpaceOnUse">
      <stop stop-color="#2DD4BF"/>
      <stop offset="1" stop-color="#2563EB"/>
    </linearGradient>
  </defs>
</svg>
